<svg xmlns="http://www.w3.org/2000/svg" version="1.1" xmlns:xlink="http://www.w3.org/1999/xlink" xmlns:svgjs="http://svgjs.dev/svgjs" width="1000" height="1125" viewBox="0 0 1000 1125"><g transform="matrix(1,0,0,1,0.0011008540699322111,0)"><svg viewBox="0 0 320 360" data-background-color="#ffffff" preserveAspectRatio="xMidYMid meet" height="1125" width="1000" xmlns="http://www.w3.org/2000/svg" xmlns:xlink="http://www.w3.org/1999/xlink"><g id="tight-bounds" transform="matrix(1,0,0,1,0.00010353528136874957,0)"><svg viewBox="0 0 320 360" height="360" width="320"><g><svg></svg></g><g><svg viewBox="0 0 320 360" height="360" width="320"><g><path xmlns="http://www.w3.org/2000/svg" d="M307.925 179.999l6.575-11.387c11.322-19.607 4.604-44.679-15.003-56.001l-11.387-6.575v-13.151c0-22.639-18.354-40.994-40.994-40.994h-13.151l-6.575-11.387c-11.322-19.607-36.393-26.325-56.001-15.003l-11.39 6.572-11.387-6.576c-19.607-11.318-44.679-4.6-56.001 15.007l-6.575 11.387h-13.151c-22.639 0-40.994 18.354-40.994 40.994v13.151l-11.387 6.575c-19.607 11.322-26.325 36.393-15.003 56.001l6.572 11.387-6.576 11.387c-11.318 19.607-4.6 44.679 15.007 56l11.387 6.576v13.15c0 22.639 18.354 40.994 40.994 40.994h13.151l6.575 11.387c11.322 19.607 36.393 26.325 56.001 15.003l11.387-6.571 11.387 6.575c19.607 11.322 44.679 4.604 56-15.003l6.576-11.387h13.15c22.639 0 40.994-18.354 40.994-40.994v-13.151l11.387-6.575c19.607-11.322 26.325-36.393 15.003-56.001zM297.702 115.716c8.655 4.996 14.842 13.062 17.428 22.713 2.586 9.65 1.261 19.734-3.735 28.384l-5.538 9.596-17.747-30.74v-35.494zM251.155 271.155l-57.791 33.365h-66.731l-57.791-33.365-33.365-57.791v-66.731l33.365-57.791 57.791-33.365h66.731l57.791 33.365 33.365 57.791v66.731zM284.517 220.539v31.351l-27.151 15.676zM247.566 277.366l-15.676 27.151h-31.351zM187.15 308.106l-27.151 15.676-27.151-15.676zM119.459 304.517h-31.352l-15.676-27.151zM62.632 267.566l-27.151-15.676v-31.351zM31.891 207.15l-15.675-27.151 15.675-27.151zM35.481 139.459v-31.352l27.151-15.676zM72.431 82.632l15.676-27.151h31.352zM132.848 51.891l27.151-15.675 27.151 15.675zM200.539 55.481h31.351l15.676 27.151zM257.366 92.431l27.151 15.676v31.352zM288.106 152.848l15.676 27.151-15.676 27.151zM247.112 55.481c9.992 0 19.384 3.889 26.452 10.956 7.063 7.063 10.956 16.46 10.957 26.452v11.079l-30.741-17.747-17.747-30.74zM173.18 28.606c8.655-4.996 18.735-6.322 28.385-3.735 9.65 2.586 17.716 8.777 22.712 17.428l5.538 9.596h-35.494l-30.741-17.747zM95.716 42.295c4.996-8.655 13.062-14.842 22.713-17.428 9.65-2.586 19.734-1.261 28.384 3.736l9.596 5.537-30.74 17.747h-35.494zM35.481 92.885c0-9.992 3.889-19.384 10.956-26.452 7.063-7.063 16.46-10.956 26.452-10.956h11.079l-17.747 30.74-30.74 17.747zM8.606 166.817c-4.996-8.655-6.322-18.735-3.735-28.385 2.586-9.65 8.777-17.716 17.428-22.712l9.596-5.538v35.495l-17.747 30.74zM22.295 244.281c-8.655-4.996-14.842-13.062-17.428-22.712-2.586-9.65-1.261-19.734 3.736-28.385l5.537-9.596 17.747 30.74v35.495zM72.885 304.517c-9.992 0-19.384-3.889-26.452-10.957-7.063-7.063-10.956-16.46-10.956-26.451v-11.08l30.74 17.747 17.747 30.741zM146.817 331.391c-8.655 4.996-18.735 6.322-28.385 3.735-9.65-2.586-17.716-8.777-22.712-17.428l-5.538-9.596h35.495l30.74 17.747zM224.281 317.702c-4.996 8.655-13.062 14.842-22.712 17.428-9.65 2.586-19.734 1.261-28.385-3.735l-9.596-5.538 30.74-17.747h35.495zM284.517 267.112c0 9.992-3.889 19.384-10.957 26.452-7.063 7.063-16.46 10.956-26.451 10.957h-11.08l17.747-30.741 30.741-17.747zM315.13 221.565c-2.586 9.65-8.777 17.716-17.428 22.712l-9.596 5.538v-35.494l17.747-30.741 5.538 9.596c4.996 8.658 6.326 18.739 3.739 28.389z" fill="#ba3b0a" fill-rule="nonzero" stroke="none" stroke-width="1" stroke-linecap="butt" stroke-linejoin="miter" stroke-miterlimit="10" stroke-dasharray="" stroke-dashoffset="0" font-family="none" font-weight="none" font-size="none" text-anchor="none" style="mix-blend-mode: normal" data-fill-palette-color="tertiary"></path></g><g transform="matrix(1,0,0,1,87.30337078651687,90)"><svg viewBox="0 0 145.39325842696627 180" height="180" width="145.39325842696627"><g><svg viewBox="0 0 145.39325842696627 180" height="180" width="145.39325842696627"><g><svg viewBox="0 0 145.39325842696627 180" height="180" width="145.39325842696627"><g><svg viewBox="0 0 145.39325842696627 180" height="180" width="145.39325842696627"><g id="textblocktransform"><svg viewBox="0 0 145.39325842696627 180" height="180" width="145.39325842696627" id="textblock"><g><svg viewBox="0 0 145.39325842696627 180" height="180" width="145.39325842696627"><g transform="matrix(1,0,0,1,0,0)"><svg width="145.39325842696627" viewBox="3 -39.54999923706055 32.349998474121094 40.04999923706055" height="180" data-palette-color="#ba3b0a"><path d="M22.55 0.5L22.55 0.5Q18.55 0.5 15.03-1.07 11.5-2.65 8.8-5.43 6.1-8.2 4.55-11.83 3-15.45 3-19.55L3-19.55Q3-23.6 4.5-27.23 6-30.85 8.68-33.63 11.35-36.4 14.9-37.98 18.45-39.55 22.55-39.55L22.55-39.55Q26-39.55 29.1-38.45 32.2-37.35 34.9-35.1L34.9-35.1Q35.35-34.75 35.35-34.13 35.35-33.5 34.95-33.02 34.55-32.55 33.85-32.55L33.85-32.55Q33.65-32.55 33.45-32.63 33.25-32.7 33.05-32.83 32.85-32.95 32.6-33.15L32.6-33.15Q30.6-34.95 28.05-35.75 25.5-36.55 22.55-36.55L22.55-36.55Q19.2-36.55 16.2-35.18 13.2-33.8 10.9-31.43 8.6-29.05 7.3-26 6-22.95 6-19.55L6-19.55Q6-16.05 7.3-12.95 8.6-9.85 10.88-7.5 13.15-5.15 16.15-3.83 19.15-2.5 22.55-2.5L22.55-2.5Q25.5-2.5 28.08-3.4 30.65-4.3 32.9-6.15L32.9-6.15Q33.3-6.5 33.85-6.4 34.4-6.3 34.8-5.9 35.2-5.5 35.2-4.85L35.2-4.85Q35.2-4.55 35.15-4.3 35.1-4.05 34.85-3.8L34.85-3.8Q32.4-1.35 29.18-0.43 25.95 0.5 22.55 0.5ZM35.2-17.55L35.2-4.85 32.2-5.5 32.2-16.3 23.8-16.3Q23.15-16.3 22.73-16.7 22.3-17.1 22.3-17.7L22.3-17.7Q22.3-18.25 22.73-18.63 23.15-19 23.8-19L23.8-19 33.7-19Q34.4-19 34.8-18.6 35.2-18.2 35.2-17.55L35.2-17.55Z" opacity="1" transform="matrix(1,0,0,1,0,0)" fill="#ba3b0a" class="undefined-text-0" data-fill-palette-color="primary" id="text-0"></path></svg></g></svg></g></svg></g></svg></g><g></g></svg></g></svg></g></svg></g></svg></g><defs></defs></svg><rect width="320" height="360" fill="none" stroke="none" visibility="hidden"></rect></g></svg></g></svg>